<svg data-svgs-path="theme_dark/search_results.svg" xmlns="http://www.w3.org/2000/svg" fill-rule="evenodd" stroke-linecap="round" stroke-linejoin="round" stroke-miterlimit="1.5" clip-rule="evenodd" viewBox="0 0 220 200"><g transform="translate(-2800 -492)"><g id="SearchResults"><path fill="none" d="M1800-100h300v300h-300z" transform="matrix(.73333 0 0 .66667 1480 558.667)"></path><path fill="#404040" d="M2880.88 626.918h-52.75c1.59-13.069 7.74-24.573 15.49-35.433a18.2 18.2 0 0 0 3.19-13.207c-.17-1.214-.36-2.534-.56-3.929-2.87-19.583 7.26-38.77 25.05-47.452a35.045 35.045 0 0 0 14.79-13.662c7.74-13.185 19.67-16.509 33.47-21.119l.14 20.051v.001a12.3 12.3 0 0 1 3.85 9.166 12.335 12.335 0 0 1-4.17 9.023l-3.5 3.081c-.41-1.109-2.51-6.358-5.13-5.65a1.3 1.3 0 0 0-.58.348c-.05.01-.09.022-.14.035a2.047 2.047 0 0 0-1.45 2.214c.59 4.595 1.11 8.67 1.11 8.67 1.62 3.617 3.62 7.068 7.75 9.57v10.031s-8.74-1.114-14.18 2.775c-.75.535-1.52 1.03-2.33 1.481-11.73 6.714-17.76 20.771-23.35 35.355a30.958 30.958 0 0 0 3.3 28.65v.001z" transform="translate(.004)"></path><path fill="#404040" d="M17006.4 888.464s-1.7-1.673-1.8-7.307c-.1-10.409 11.7-22.681 11.7-22.681v16.351l-9.9 13.637z" transform="matrix(.84652 0 0 1.08555 -11505.343 -346.835)"></path><path fill="none" stroke="#404040" stroke-width="2.17" d="M17043.5 874.827h-17.7" transform="matrix(.72171 0 0 1.08555 -9383.068 -378.45)"></path><path fill="none" stroke="#404040" stroke-width="2.12" d="M17043.5 874.827h-17.7" transform="matrix(.77326 0 0 1.08555 -10261.64 -369.477)"></path><path fill="none" stroke="#404040" stroke-width="1.89" d="M17043.5 874.827h-17.7" transform="matrix(1.03102 0 0 1.08555 -14654.75 -360.938)"></path><path fill="none" stroke="#404040" stroke-width="1.89" d="M17043.5 874.827h-17.7" transform="matrix(1.03102 0 0 1.08555 -14654.75 -353.647)"></path><path fill="none" stroke="#404040" stroke-width="2.24" d="M988.052 2713.12c1.79-2.01 3.085-4.27 3.668-6.92.426-1.94.379-5.36.379-5.36l7.727.28" transform="matrix(.93978 0 0 .84316 2027.577 -1725.008)"></path><path fill="none" stroke="#404040" stroke-width="2" d="M988.5 2701c3.398-4.46 11.5-2.5 11.5-2.5" transform="translate(1967.187 -2150.528)"></path><path fill="#404040" d="M16998.8 634.796h11v9.787c0 3.516-1.1 6.938-3.2 9.75-2 2.67-4.5 6.055-6.4 8.591-1.6 2.058-4.5 2.557-6.6 1.14v-.002c-1.5-.952-2.5-2.445-2.8-4.142a6.5 6.5 0 0 1 1.1-4.87c1.6-2.412 3.5-5.158 4.9-7.17 1.3-1.875 2-4.105 2-6.389v-6.695z" transform="scale(.84251) rotate(45 10015.615 -15658.572)"></path><path fill="none" stroke="#404040" stroke-width="2.05" d="M17043.5 896.806v-21.132" transform="matrix(.84652 0 0 1.08555 -11505.343 -346.835)"></path><path fill="none" stroke="#797979" stroke-width="2.48" d="M16637 1390h110" transform="matrix(.76592 0 0 .84251 -9838.78 -544.173)"></path><path fill="#404040" d="M2848.83 642.213v-9.053h19.63c2.96 0 5.84.961 8.21 2.738 2.25 1.687 5.1 3.826 7.24 5.428a4.105 4.105 0 0 1 .96 5.535v.001a5.398 5.398 0 0 1-7.59 1.457c-2.04-1.413-4.35-3.023-6.05-4.203a9.412 9.412 0 0 0-1.74-.959 4.101 4.101 0 0 0 .76-5.377v-.002a5.397 5.397 0 0 0-7.59-1.457c-2.04 1.414-4.35 3.024-6.04 4.203a9.453 9.453 0 0 1-5.39 1.689h-2.4z" transform="translate(.004)"></path><path fill="#797979" d="M2837.6 642.213v9.268h-3.39v-9.268h3.39zm4.56 0v9.268h-2.56v-9.268h2.56zm4.55 0v9.268h-2.55v-9.268h2.55zm4.56 0v9.268h-2.56v-9.268h2.56zm3.52-.697l1.93 9.657c-.94.204-1.91.308-2.88.308h-.57v-9.491a9.3 9.3 0 0 0 1.52-.474zm3.86 9.092l-2.02-10.092 1.42-.993 4.08 9.163-.08.056a13.693 13.693 0 0 1-3.4 1.866zm8.01-5.321l-2.89 2.168-4.05-9.095 1.8-1.249 5.14 8.176zm-3.48-9.289a5.407 5.407 0 0 1 7.07 1.78v.002a4.104 4.104 0 0 1-.96 5.534l-1.03.769-5.08-8.085z" transform="translate(.004)"></path><path fill="#797979" d="M16998.8 621.293h11v23.29c0 3.516-1.1 6.938-3.2 9.75-2 2.67-4.5 6.055-6.4 8.591-1.6 2.058-4.5 2.557-6.6 1.14v-.002c-1.5-.952-2.5-2.445-2.8-4.142a6.5 6.5 0 0 1 1.1-4.87c1.6-2.412 3.5-5.158 4.9-7.17 1.3-1.875 2-4.105 2-6.389v-20.198z" transform="matrix(0 .84251 -.84251 0 3440.7 -13644.733)"></path><path fill="#404040" d="M16998.8 621.293h11v23.29c0 3.516-1.1 6.938-3.2 9.75-2 2.67-4.5 6.055-6.4 8.591-1.6 2.058-4.5 2.557-6.6 1.14v-.002c-1.5-.952-2.5-2.445-2.8-4.142a6.5 6.5 0 0 1 1.1-4.87c1.6-2.412 3.5-5.158 4.9-7.17 1.3-1.875 2-4.105 2-6.389v-20.198z" transform="matrix(0 .84251 -.84251 0 3511.07 -13677.233)"></path><path fill="#404040" d="M16998.8 621.293h11v23.29c0 3.516-1.1 6.938-3.2 9.75-2 2.67-4.5 6.055-6.4 8.591-1.6 2.058-4.5 2.557-6.6 1.14v-.002c-1.5-.952-2.5-2.445-2.8-4.142a6.5 6.5 0 0 1 1.1-4.87c1.6-2.412 3.5-5.158 4.9-7.17 1.3-1.875 2-4.105 2-6.389v-20.198z" transform="matrix(0 .84251 -.84251 0 3385.18 -13654.133)"></path><path fill="#404040" d="M16894.8 749.999c0-2.761-1.1-4.999-2.5-4.999h-5c-1.3 0-2.5 2.238-2.5 4.999v.002c0 2.761 1.2 4.999 2.5 4.999h5c1.4 0 2.5-2.238 2.5-4.999v-.002z" transform="matrix(1.68502 0 0 .84251 -25585.674 26.635)"></path><path fill="#404040" d="M16894.8 749.999c0-2.761-1.1-4.999-2.5-4.999h-5c-1.3 0-2.5 2.238-2.5 4.999v.002c0 2.761 1.2 4.999 2.5 4.999h5c1.4 0 2.5-2.238 2.5-4.999v-.002z" transform="matrix(1.68502 0 0 .84251 -25471.774 35.796)"></path><path fill="#404040" d="M16894.8 749.999c0-2.761-1.1-4.999-2.5-4.999h-5c-1.3 0-2.5 2.238-2.5 4.999v.002c0 2.761 1.2 4.999 2.5 4.999h5c1.4 0 2.5-2.238 2.5-4.999v-.002z" transform="matrix(1.68502 0 0 .84251 -25484.374 3.46)"></path><path fill="none" stroke="#797979" stroke-width="1.67" d="M16697 1390h53.3" transform="translate(-17153.955 -1035.648) scale(1.19609)"></path><path fill="none" stroke="#404040" stroke-width="2.19" d="M17025.7 570.321c-.1-3.863 1-5.957 2.6-7.056 1.4-1.034 3.2-1.052 4.5-.56" transform="matrix(.91144 0 0 .91143 -12593.245 18.171)"></path><path fill="#bcbcbc" d="M2896.35 565.656c1.06-.982 1.34-1.923 2.3-2.591 8.95-6.211 4.69-12.728 4.55-26.521-.09-8.84.09-14.758 5.32-19.998 6.41-6.419 20.44-6.265 24.1 4.518 1.41 4.122 1.56 10.857 1.56 10.857v31.155c-4.56-2.001-13.1-4.435-13.1-4.435l-5.47.026s-12.46 1.257-19.26 6.989c-.1.095-.21.19-.33.286.11-.097.22-.192.33-.286zm19.6-32.015s-2.28-6.644-5.2-5.853c-2.92.791-2.25 13.072 4.81 19.348 7.07 6.288 13.19-1.388 14.44-5.489 2.29-7.542.82-13.72-3.66-17.929-1.8 3.402-5.6 7.056-10.39 9.923z" transform="translate(.004)"></path><path fill="none" stroke="#404040" stroke-width="2.64" d="M17081.6 814.729c-2-18.868 6.2-29.624 22.9-26.093" transform="translate(-9990.94 -53.185) scale(.75757)"></path><g transform="translate(-9989.34 -52.703) scale(.75757)"><path fill="#404040" d="M17024.8 866h19.4s8-8.024 10.4-19.779c0 0 3.8 21.165 16.2 28.779 12.5 7.614 21.9-4.392 21.1-21.842-.6-12.7-7.7-30.512-7.7-39.267h-5.9l-.3 48.743s-10.2-27.731-12.2-35.634c-1.9-7.903-7.3-20.603-20-20h-11c3.1 35.243-3.1 47.826-10 59z"></path><clipPath id="_clip1"><path d="M17024.8 866h19.4s8-8.024 10.4-19.779c0 0 3.8 21.165 16.2 28.779 12.5 7.614 21.9-4.392 21.1-21.842-.6-12.7-7.7-30.512-7.7-39.267h-5.9l-.3 48.743s-10.2-27.731-12.2-35.634c-1.9-7.903-7.3-20.603-20-20h-11c3.1 35.243-3.1 47.826-10 59z"></path></clipPath><g clip-path="url(#_clip1)"><path fill="none" stroke="#797979" stroke-width="1.95" d="M17043.5 874.827h-17.7" transform="matrix(1.26779 0 0 1.43293 -4556.68 -397.248)"></path><path fill="none" stroke="#797979" stroke-width="2.01" d="M17042.9 874.827h-17.1" transform="matrix(1.18769 0 0 1.43293 -3188.23 -406.872)"></path><path fill="none" stroke="#797979" stroke-width="1.94" d="M17043.5 874.827h-17.7" transform="matrix(1.28085 0 0 1.43293 -4772.91 -418.143)"></path><path fill="none" stroke="#797979" stroke-width="1.93" d="M17043.5 874.827h-17.7" transform="matrix(1.2929 0 0 1.43293 -4976.95 -429.988)"></path></g></g><path fill="none" stroke="#797979" stroke-width="2.64" d="M17024.6 930s-24.6-38.34-24.5-54.025c.2-18.685 12.7-34.371 18.4-40.551" transform="translate(-9989.34 -52.703) scale(.75757)"></path><path fill="none" stroke="#fff" stroke-width="2.68" d="M16930.3 738.869c3.4 10.465 1 24.969-9.3 32.145" transform="matrix(.73263 0 0 .76028 -9495.589 90.092)"></path><path fill="none" stroke="#fff" stroke-width="2.65" d="M17035.7 804.632s-12.8-.036-25.8 10.321c-6.3 4.92-13 14.74-18.4 25.311-16.7 32.82-8.3 48.692-.9 59.366s23.8 30.839 23.8 30.839" transform="matrix(.75896 0 0 .7506 -10012.84 -46.219)"></path><path fill="none" stroke="#797979" stroke-width="2.05" d="M17043.5 874.827h-27.2" transform="matrix(.84652 0 0 1.08555 -11505.343 -345.924)"></path><path fill="none" stroke="#fff" stroke-width="2.05" d="M17043.5 874.827h-17.7" transform="matrix(.84652 0 0 1.08555 -11505.343 -345.924)"></path><path fill="#fff" stroke="#797979" stroke-width="2.87" d="M17015 595.181c-.1.163-2.6-1.045-2.8-1.041" transform="matrix(.79788 -.03132 .03102 .56558 -10669.241 738.074)"></path><path fill="#fff" stroke="#bcbcbc" stroke-width="2.19" d="M17009.9 588.627s-.2 1.086-.2 1.736" transform="matrix(.91046 -.04225 .04225 .91045 -12591.345 717.604)"></path><path fill="#fff" stroke="#bcbcbc" stroke-width="2.39" d="M17009.8 588.424c-.1.646-.1 1.289-.1 1.939" transform="matrix(.91527 -.12958 -.02463 .9111 -12626.145 2203.464)"></path><path fill="none" stroke="#fff" stroke-width="2.39" d="M17009.8 588.424c-.1.646-.1 1.289-.1 1.939" transform="matrix(-.06003 .92245 -.88688 -.21014 4465.462 -15022.134)"></path><path fill="none" stroke="#fff" stroke-width="2.79" d="M17044.8 537c.2-4.044 5.8-8.655 9-5 4 4.47-6 7.521-6 16.335V551" transform="scale(.71806 .71805) rotate(9.237 9435.376 -79200.509)"></path><path fill="none" stroke="#fff" stroke-width="2.79" d="M17048.1 555.207c.1.525.1 1.051.1 1.576" transform="scale(.71806 .71805) rotate(9.237 9414.296 -79202.19)"></path><path fill="none" stroke="#fff" stroke-width="1.84" d="M17051.9 545.881c-.2 3.821-.7 7.69-1.3 11.47M17050.3 561.329c-.1.25-.1.498-.2.746" transform="matrix(1.01551 .38774 -.38774 1.01551 -14113.049 -6639.92)"></path><path fill="none" stroke="#404040" stroke-width="2.19" d="M17031.1 545.823c.6 4.79 1.1 9.658 1.4 14.479M17056.8 570.96c2.3-1.612 4.5-3.224 6.8-4.855M17058.3 581.403c2.6-.326 5.2-.666 7.8-1.067" transform="scale(.91144 .91143) rotate(9.237 9993.848 -84687.93)"></path><path fill="none" stroke="#fff" stroke-width="2.6" d="M16993 725.525c-1.1 6.071-6.1 14.555-9.7 18.774" transform="matrix(.8595 0 0 .66574 -11701.243 181.363)"></path><path fill="none" stroke="#fff" stroke-width="2.6" d="M16993 725.525c-1.1 6.071-6.1 14.555-9.7 18.774" transform="matrix(.8595 0 0 .66574 -11703.843 178.613)"></path><path fill="none" stroke="#fff" stroke-width="2.38" d="M16986.9 724.747c-1.1 4.723-3.2 9.721-6.7 13.296" transform="matrix(.84102 0 0 .84102 -11387.943 48.943)"></path><path fill="#fff" stroke="#797979" stroke-width="2.87" d="M17014.5 588.555c0 2.319.2 4.572.5 6.626" transform="matrix(.79788 -.03132 .03102 .56558 -10669.241 738.074)"></path><g><path fill="#404040" d="M2965.64 660.058h3.38v9.268h-3.38v-9.268zm-2 9.268h-2.56v-9.268h2.56v9.268zm-4.56 0h-2.56v-9.268h2.56v9.268zm-7.11-9.268h2.55v9.268h-2.55v-9.268zm-3.52-.697a9.3 9.3 0 0 0 1.52.474v9.491h-.57c-.98 0-1.94-.104-2.89-.308l1.94-9.657zm-7.34 7.17l4.07-9.163 1.43.993-2.02 10.092a13.783 13.783 0 0 1-3.41-1.865l-.07-.057zm2.4-10.326l-4.04 9.095-2.89-2.168 5.14-8.175 1.79 1.248zm-8.54 5.723l-1.02-.769a4.084 4.084 0 0 1-.96-5.534v-.002a5.4 5.4 0 0 1 7.06-1.78l-5.08 8.085z" transform="translate(.002)"></path></g><g transform="translate(.002)"><path fill="#fff" d="M2963.18 553.287l10.89.217v14.177c0 1.924.59 3.803 1.69 5.383 1.48 2.13 3.68 5.294 5.53 7.951.9 1.291 1.24 2.89.94 4.434a5.853 5.853 0 0 1-2.51 3.772l-.01.001a5.364 5.364 0 0 1-7.25-1.259c-2-2.67-4.6-6.139-6.54-8.725a13.676 13.676 0 0 1-2.74-8.215v-17.736zm0-2.001v-4.813c3.94-.008 7.4.354 10.89.694v4.337l-10.89-.218z"></path><clipPath id="_clip2"><path d="M2963.18 553.287l10.89.217v14.177c0 1.924.59 3.803 1.69 5.383 1.48 2.13 3.68 5.294 5.53 7.951.9 1.291 1.24 2.89.94 4.434a5.853 5.853 0 0 1-2.51 3.772l-.01.001a5.364 5.364 0 0 1-7.25-1.259c-2-2.67-4.6-6.139-6.54-8.725a13.676 13.676 0 0 1-2.74-8.215v-17.736zm0-2.001v-4.813c3.94-.008 7.4.354 10.89.694v4.337l-10.89-.218z"></path></clipPath><g clip-path="url(#_clip2)"><path fill="none" stroke="#fff" stroke-width="1.504" d="M2973.14 587.74c1.93-1.591 3.686-3.451 5.372-5.285.617-.686 1.225-1.425 1.868-2.129"></path></g></g></g></g></svg>