<svg data-svgs-path="theme_dark/today.svg" viewBox="0 0 220 200"
  xmlns="http://www.w3.org/2000/svg" fill-rule="evenodd" clip-rule="evenodd" stroke-linecap="round" stroke-miterlimit="1.5">
  <g transform="translate(-2550)">
    <g id="Today">
      <path fill="none" d="M1800-100h300v300h-300z" transform="matrix(.73333 0 0 .66667 1230 66.667)"></path>
      <path d="M915.267 2305.42s-27.319-.61-36.253-16.99c-7.203-13.2.416-24.21 18.559-20.28 18.644 4.04 31.639 6.92 65.171 6.59 27.553-.26 42.636-1.73 60.016-4.27 21.08-3.07 27.76 13.06 13.19 26.54-6.86 6.34-20.21 9-28.39 10.08-3.65.48-7.32.67-10.991.56-16.971-.46-81.302-2.23-81.302-2.23z" fill="#797979" transform="matrix(1.04287 .01119 -.0105 .97853 1681.08 -2167.148)"></path>
      <path d="M912.779 2306.89h-.086c-1.551.05-23.714.44-32.334-15.36-7.202-13.2-6.209-27.29 12.936-18.43 18.418 8.53 36.31 7.22 69.842 6.9 22.604-.22 37.513-2.31 51.493-4.07 3.06-.39 13.6-3.88 19.21-8.72 10.58-9.13 11.19 14.79 1.41 23.84-4.76 4.41-11.58 8.57-17.54 11.78-6.41 3.83-12.88 5.69-19.372 5.54-21.172 0-85.52-1.48-85.559-1.48z" fill="#fff" stroke="#fff" stroke-width="4.07" transform="matrix(.66987 .00719 -.00196 .18297 2019.66 -339.283)"></path>
      <path d="M18088.9 1370.35c4.2 3.51 7 11.14 3.8 19.59" fill="none" stroke="#404040" stroke-width="2" transform="matrix(.93642 -.34408 .34408 .93641 -14787.857 5068.155)"></path>
      <path d="M18074.7 1357c-.3 3.32 1.5 6.06 4.2 7.64" fill="none" stroke="#404040" stroke-width="1.45" transform="scale(1.37764) rotate(-8.599 1484.214 108364.642)"></path>
      <path d="M18140.8 1357.88c.1 3.24-1.3 6.45-3.6 8.68" fill="none" stroke="#404040" stroke-width="1.45" transform="matrix(1.27027 .5332 -.5332 1.27027 -19622.167 -11278.543)"></path>
      <path d="M18146.7 1302.38s-10.7.72-16.7.89c-13.7.38-22.7 1.39-38.2 1.01-5.4-.14-18.4-2.25-18.4-2.25 1.8-3.57 4.1-7.83 4.1-7.83s12.1-4.08 32-4.2c16.6-.1 27.5 2.5 32.1 3.85 1.4.43 2.6 1.47 3.1 2.81 1 2.76 2 5.72 2 5.72z" fill="#404040" transform="matrix(1.45558 .01561 -.01627 1.51674 -23676.776 -2194.968)"></path>
      <path d="M1249.36 1583.27c3.92-2.11 14.12-3.81 22.55-4.72" fill="none" stroke="#fff" stroke-width="2" stroke-linejoin="round" transform="translate(1360.379 -1526.738)"></path>
      <path d="M1248.65 1587.26c10.41-4.83 30.01-6.05 35.31-6.02" fill="none" stroke="#fff" stroke-width="2.25" stroke-linejoin="round" transform="matrix(1 0 0 .76407 1359.379 -1151.016)"></path>
      <path d="M18095.7 1358.72h41.3" fill="none" stroke="#404040" stroke-width="1.55" transform="translate(-20650.47 -1589.458) scale(1.28693)"></path>
      <path fill="#404040" d="M18061.6 1339.25h12.352v12.352h-12.352z" transform="matrix(.72537 0 0 .72537 -10490.277 -817.14)"></path>
      <path d="M18066.7 1374.76c.3.67 4.3 5.24 4.3 5.24s5.7-4.66 8.4-6.38" fill="none" stroke="#fff" stroke-width="1.7" stroke-linejoin="round" transform="translate(-18617.265 -1460.788) scale(1.17511)"></path>
      <path d="M18094.9 1358.72h42.1" fill="none" stroke="#404040" stroke-width="1.55" transform="translate(-20638.67 -1573.748) scale(1.28693)"></path>
      <path d="M18089.7 1358.72h34.9" fill="none" stroke="#404040" stroke-width="1.55" transform="translate(-20638.67 -1558.328) scale(1.28693)"></path>
      <path fill="#404040" d="M18061.6 1339.25h12.352v12.352h-12.352z" transform="matrix(.72537 0 0 .72537 -10490.277 -785.412)"></path>
      <path d="M18066.7 1374.76c.3.67 4.3 5.24 4.3 5.24s5.7-4.66 8.4-6.38" fill="none" stroke="#fff" stroke-width="1.7" stroke-linejoin="round" transform="translate(-18617.265 -1429.058) scale(1.17511)"></path>
      <path fill="#404040" d="M18061.6 1339.25h12.352v12.352h-12.352z" transform="matrix(.72537 0 0 .72537 -10478.517 -801.109)"></path>
      <path d="M18066.7 1374.76c.3.67 4.3 5.24 4.3 5.24s5.7-4.66 8.4-6.38" fill="none" stroke="#fff" stroke-width="1.7" stroke-linejoin="round" transform="translate(-18605.165 -1444.338) scale(1.17511)"></path>
      <g transform="matrix(1.50864 .01618 -.0117 1.09111 -24645.579 -1633.638)">
        <path d="M18132.6 1304.57c-16.5.9-33.5 1.29-51.4.04-1.7 5.44-1.1 11.67 1.5 16.34s6.8 7.05 11 6.24c1.5-.27 2.4-.45 2.4-.45s1.1 3.49 2.6 8.26c1.7 5.2 5.4 8.53 9.5 8.46 4.2-.07 7.8-3.53 9.4-8.79 1.3-4.45 2.1-8.1 1.7-10.39 0 0 .7.24 1.9.62 3.5 1.16 7.2-.36 9.7-3.98 2.4-3.62 3.3-8.8 2.3-13.58-.3-1.7-.6-2.77-.6-2.77z" fill="#404040"></path>
        <clipPath id="_clip1">
          <path d="M18132.6 1304.57c-16.5.9-33.5 1.29-51.4.04-1.7 5.44-1.1 11.67 1.5 16.34s6.8 7.05 11 6.24c1.5-.27 2.4-.45 2.4-.45s1.1 3.49 2.6 8.26c1.7 5.2 5.4 8.53 9.5 8.46 4.2-.07 7.8-3.53 9.4-8.79 1.3-4.45 2.1-8.1 1.7-10.39 0 0 .7.24 1.9.62 3.5 1.16 7.2-.36 9.7-3.98 2.4-3.62 3.3-8.8 2.3-13.58-.3-1.7-.6-2.77-.6-2.77z"></path>
        </clipPath>
        <g clip-path="url(#_clip1)">
          <path fill="#fff" d="M18109 1337h9v9h-9z" transform="matrix(.99407 .79355 -.57393 1.37447 855.134 -14912.1)"></path>
        </g>
      </g>
      <circle cx="18111.6" cy="1337.31" r="6.172" fill="#797979" transform="matrix(1.37756 .01478 -.01478 1.37756 -22261.173 -2025.468)"></circle>
      <path fill="none" stroke="#797979" stroke-width="1.15" stroke-linejoin="round" d="M18109 1337h9v9h-9z" transform="matrix(1.21136 1.23763 -1.23763 1.21136 -17639.163 -23925.25)"></path>
      <path d="M18089 1352c0 2.76 2.2 5 5 5s5-2.24 5-5h-10z" fill="#fff" transform="scale(2.34199 2.34198) rotate(-44.385 8008 21498.754)"></path>
      <path d="M18102.1 1336.13c.4 6.1 4.8 10.89 11.1 10.73" fill="none" stroke="#fff" stroke-width="1.45" stroke-linejoin="round" transform="matrix(1.37756 .01478 -.01478 1.37756 -22267.573 -2018.468)"></path>
      <path d="M18116 1367.08c4.3.15 7.6-1.26 8.8-5.61.5-1.73.2-7.27-3.1-6.11-2.4.85-1.3 4.77-.4 6.27 3 4.87 9.3 2.05 10.8-2.51" fill="none" stroke="#404040" stroke-width="1.77" transform="matrix(1.14984 -.3257 .28955 1.02221 -18573.565 4653.195)"></path>
      <path d="M18126.6 1336.91c-1.2 5.42 2.3 12.49 8.7 13.13" fill="none" stroke="#404040" stroke-width="2.09" transform="scale(.955) rotate(-13.158 5297.85 67122.437)"></path>
      <path d="M918.42 2265.48c3.16-8.25 9.014-23.4 11.58-27.48 4.008-6.38 13.32-13.9 25.61-3.49 5.277 4.47 11.745 3.62 15.367.37 8.39-7.54 19.77-8.66 25.352 2.12 2.444 4.72 5.871 15.53 8.611 23.93" fill="none" stroke="#fff" stroke-width="1.9" stroke-linejoin="round" transform="matrix(1.1476 .01231 -.01018 .94893 1580.65 -2105.118)"></path>
      <path d="M921.952 2305.76s-28.459-1.92-38.107-16.71c-9.328-14.3 2.411-24.24 17.472-20.22 17.435 4.66 29.685 7.49 64.601 7.16 34.922-.34 40.102-2.4 57.622-3.46 18.56-1.11 25.6 14.07 9.46 25.35-13.25 9.25-34.765 9.84-34.765 9.84" fill="none" stroke="#bcbcbc" stroke-width="1.79" stroke-linejoin="round" transform="matrix(1.11927 .0004 -.0004 1.11482 1584.01 -2471.499)"></path>
      <path d="M18073.5 1340.28c-.4 4.47.9 6.7 3.9 9.66" fill="none" stroke="#bcbcbc" stroke-width="1.45" stroke-linejoin="round" transform="matrix(1.37756 .01478 -.01478 1.37756 -22267.573 -2018.468)"></path>
      <path d="M18073.6 1343.52c.7 3.53 2.7 6.83 5 7.35" fill="none" stroke="#404040" stroke-width="1.44" transform="matrix(-1.60516 -.36663 -.23835 1.04353 32028.447 5364.685)"></path>
      <path d="M21124.9 1371c-2.6.83-2.7-3.19-2.7-5.98.2-12.53 6.2-25.53 17.9-33.77 1.8-1.28 4.9-.05 2.4 1.66-12.8 8.88-18.5 23.46-16.8 36.85 0 0 .1.83-.8 1.24z" fill="#bcbcbc" fill-rule="nonzero" transform="matrix(-.5203 -.3365 .4371 -.67584 13093.605 8132.617)"></path>
      <path d="M21078.5 1361.13c0-2.28.6-4.13 1.4-4.13.8 0 1.4 1.85 1.4 4.13 1.6-1.61 3.4-2.48 3.9-1.93.5.54-.3 2.29-1.9 3.9 2.3 0 4.1.63 4.1 1.4 0 .77-1.8 1.4-4.1 1.4 1.6 1.61 2.4 3.36 1.9 3.9-.5.55-2.3-.32-3.9-1.93 0 2.28-.6 4.13-1.4 4.13-.8 0-1.4-1.85-1.4-4.13-1.6 1.61-3.4 2.48-3.9 1.93-.5-.54.3-2.29 1.9-3.9-2.2 0-4.1-.63-4.1-1.4 0-.77 1.9-1.4 4.1-1.4-1.6-1.61-2.4-3.36-1.9-3.9.5-.55 2.3.32 3.9 1.93z" fill="#fff" transform="matrix(-1.33287 .63245 -.63246 -1.33287 31633.546 -11392.843)"></path>
      <circle cx="21134.2" cy="1315.25" r="1.75" fill="#fff" transform="matrix(-1.06182 -.68674 .68674 -1.06182 24211.53 16030.57)"></circle>
    </g>
  </g>
</svg>